<?xml version="1.0" encoding="utf-8"?>
<!-- Generator: Adobe Illustrator 24.3.0, SVG Export Plug-In . SVG Version: 6.00 Build 0)  -->
<svg version="1.1" id="Layer_1" xmlns="http://www.w3.org/2000/svg" xmlns:xlink="http://www.w3.org/1999/xlink" x="0px" y="0px"
	 viewBox="0 0 1000 1000" style="enable-background:new 0 0 1000 1000;" xml:space="preserve">
<style type="text/css">
	.st0{fill:url(#SVGID_1_);}
	.st1{fill:url(#SVGID_2_);}
	.st2{fill:url(#SVGID_3_);}
	.st3{fill:url(#SVGID_4_);}
	.st4{fill:#FFFFFF;}
	.st5{fill:url(#SVGID_5_);}
	.st6{fill:url(#SVGID_6_);}
	.st7{fill:url(#SVGID_7_);}
	.st8{fill:url(#SVGID_8_);}
	.st9{fill:url(#SVGID_9_);}
	.st10{fill:url(#SVGID_10_);}
	.st11{fill:url(#SVGID_11_);}
	.st12{fill:url(#SVGID_12_);}
	.st13{fill:url(#SVGID_13_);}
	.st14{fill:url(#SVGID_14_);}
	.st15{fill:url(#SVGID_15_);}
	.st16{fill:url(#SVGID_16_);}
	.st17{fill:url(#SVGID_17_);}
	.st18{fill:url(#SVGID_18_);}
	.st19{fill:url(#SVGID_19_);}
	.st20{fill:url(#SVGID_20_);}
	.st21{fill:url(#SVGID_21_);}
	.st22{fill:url(#SVGID_22_);}
	.st23{fill:url(#SVGID_23_);}
	.st24{fill:url(#SVGID_24_);}
	.st25{fill:url(#SVGID_25_);}
	.st26{fill:url(#SVGID_26_);}
	.st27{fill:url(#SVGID_27_);}
	.st28{fill:url(#SVGID_28_);}
	.st29{fill:url(#SVGID_29_);}
	.st30{fill:url(#SVGID_30_);}
	.st31{fill:url(#SVGID_31_);}
	.st32{opacity:0.6;fill:url(#SVGID_32_);}
	.st33{opacity:0.6;fill:url(#SVGID_33_);}
	.st34{opacity:0.6;fill:url(#SVGID_34_);}
	.st35{fill:url(#SVGID_35_);}
	.st36{fill:url(#SVGID_36_);}
	.st37{opacity:0.6;fill:url(#SVGID_37_);}
	.st38{opacity:0.6;fill:url(#SVGID_38_);}
	.st39{opacity:0.6;fill:url(#SVGID_39_);}
	.st40{fill:url(#SVGID_40_);}
	.st41{fill:url(#SVGID_41_);}
	.st42{fill:url(#SVGID_42_);}
	.st43{fill:url(#SVGID_43_);}
	.st44{fill:url(#SVGID_44_);}
	.st45{fill:url(#SVGID_45_);}
	.st46{fill:url(#SVGID_46_);}
	.st47{fill:url(#SVGID_47_);}
	.st48{fill:url(#SVGID_48_);}
	.st49{fill:url(#SVGID_49_);}
	.st50{fill:url(#SVGID_50_);}
	.st51{fill:url(#SVGID_51_);}
	.st52{fill:url(#SVGID_52_);}
	.st53{fill:url(#SVGID_53_);}
	.st54{fill:url(#SVGID_54_);}
	.st55{fill:url(#SVGID_55_);}
	.st56{fill:url(#SVGID_56_);}
	.st57{fill:url(#SVGID_57_);}
	.st58{fill:url(#SVGID_58_);}
	.st59{fill:url(#SVGID_59_);}
	.st60{fill:url(#SVGID_60_);}
	.st61{fill:url(#SVGID_61_);}
	.st62{fill:url(#SVGID_62_);}
	.st63{fill:url(#SVGID_63_);}
	.st64{fill:url(#SVGID_64_);}
	.st65{fill:url(#SVGID_65_);}
	.st66{fill:url(#SVGID_66_);}
	.st67{fill:url(#SVGID_67_);}
	.st68{fill:url(#SVGID_68_);}
	.st69{fill:url(#SVGID_69_);}
	.st70{fill:url(#SVGID_70_);}
	.st71{fill:url(#SVGID_71_);}
	.st72{fill:url(#SVGID_72_);}
	.st73{fill:url(#SVGID_73_);}
	.st74{fill:url(#SVGID_74_);}
	.st75{fill:url(#SVGID_75_);}
	.st76{fill:url(#SVGID_76_);}
	.st77{opacity:0.6;fill:url(#SVGID_77_);}
	.st78{fill:url(#SVGID_78_);}
	.st79{opacity:0.6;fill:url(#SVGID_79_);}
	.st80{fill:url(#SVGID_80_);}
	.st81{opacity:0.6;fill:url(#SVGID_81_);}
	.st82{fill:url(#SVGID_82_);}
	.st83{fill:url(#SVGID_83_);}
	.st84{fill:url(#SVGID_84_);}
	.st85{fill:url(#SVGID_85_);}
	.st86{opacity:0.6;fill:url(#SVGID_86_);}
	.st87{fill:url(#SVGID_87_);}
	.st88{opacity:0.6;fill:url(#SVGID_88_);}
	.st89{fill:url(#SVGID_89_);}
	.st90{opacity:0.6;fill:url(#SVGID_90_);}
	.st91{opacity:0.5;fill:url(#SVGID_91_);}
	.st92{opacity:0.5;fill:url(#SVGID_92_);}
	.st93{opacity:0.5;fill:url(#SVGID_93_);}
	.st94{opacity:0.5;fill:url(#SVGID_94_);}
	.st95{opacity:0.5;fill:url(#SVGID_95_);}
	.st96{opacity:0.5;fill:url(#SVGID_96_);}
	.st97{opacity:0.5;fill:url(#SVGID_97_);}
	.st98{opacity:0.5;fill:url(#SVGID_98_);}
	.st99{opacity:0.5;fill:url(#SVGID_99_);}
	.st100{opacity:0.5;fill:url(#SVGID_100_);}
	.st101{opacity:0.5;fill:url(#SVGID_101_);}
	.st102{opacity:0.5;fill:url(#SVGID_102_);}
	.st103{opacity:0.5;fill:url(#SVGID_103_);}
	.st104{opacity:0.5;fill:url(#SVGID_104_);}
	.st105{opacity:0.5;fill:url(#SVGID_105_);}
</style>
<radialGradient id="SVGID_1_" cx="500" cy="500" r="500" gradientUnits="userSpaceOnUse">
	<stop  offset="0" style="stop-color:#0A1D28"/>
	<stop  offset="1" style="stop-color:#050505"/>
</radialGradient>
<rect class="st0" width="1000" height="1000"/>
<g>
	<g>
		<g>
			<path class="st4" d="M225.66,588.04l19.55-17.83h19.9l-27.19,23.44l30.15,23.94H246.9l-21.24-18.04h-7.39v18.04h-14.42v-47.37
				h14.42v17.83H225.66z"/>
			<path class="st4" d="M336.04,570.21v10.8h-38.42v8.1h35.87v9.38h-35.87v8.38h38.42v10.73h-52.84v-47.37H336.04z"/>
			<path class="st4" d="M417.22,570.21l-26.63,30.9v16.48H376.1v-16.48l-27.06-30.9h18.22l16.05,19.53l15.91-19.53H417.22z"/>
			<path class="st4" d="M445.56,603.24c0,1.94,0.65,3.16,1.95,3.66c1.3,0.5,3.11,0.75,5.43,0.75l6.82,0.07l9.66-0.28
				c2.65,0,4.38-0.33,5.19-0.99c0.8-0.66,1.21-1.7,1.21-3.12c0-1.28-0.46-2.3-1.39-3.05c-0.92-0.76-2.69-1.14-5.29-1.14h-2.34
				l-23.72-0.5c-4.45,0-7.59-1.12-9.41-3.37c-1.82-2.25-2.73-5.69-2.73-10.33c0-3.93,0.58-6.98,1.74-9.16
				c1.16-2.18,3.27-3.66,6.32-4.44c3.05-0.78,7.05-1.24,12-1.38c4.95-0.14,8.27-0.21,9.98-0.21l10.09,0.14
				c4.02,0,7.27,0.32,9.73,0.96c2.46,0.64,4.2,1.81,5.22,3.52c1.02,1.7,1.67,3.24,1.95,4.62c0.28,1.37,0.43,3.27,0.43,5.68h-14.13
				c0-1.66-0.49-2.82-1.46-3.48c-0.97-0.66-2.33-0.99-4.08-0.99l-6.96-0.07l-11.01,0.35c-1.47,0-2.71,0.27-3.73,0.82
				c-1.02,0.54-1.53,1.46-1.53,2.73c0,1.75,0.6,2.9,1.81,3.44c1.21,0.54,2.85,0.82,4.94,0.82h1.49l9.66,0.14l9.52,0.07
				c6.11,0,10.55,0.96,13.32,2.88c2.77,1.92,4.15,5.77,4.15,11.54c0,5.59-1.24,9.42-3.73,11.51c-2.49,2.08-6.59,3.13-12.32,3.13
				l-18.47,0.5l-9.66-0.21c-5.11,0-8.88-0.83-11.29-2.49c-2.42-1.66-3.62-4.99-3.62-10.01v-2.84h14.21L445.56,603.24z"/>
			<path class="st4" d="M525.68,617.58v-35.51h-21.17v-11.86h56.68v11.86h-21.09v35.51H525.68z"/>
			<path class="st4" d="M606.93,569.71l11.51,0.07c8.43,0,14.19,1.4,17.29,4.19c3.1,2.79,4.65,8.38,4.65,16.76v2.27
				c0,9.85-1.23,16.44-3.69,19.78c-2.46,3.34-8.69,5.01-18.68,5.01l-10.87,0.21l-4.55,0.07l-9.8-0.35c-5.49,0-9.73-1.24-12.71-3.73
				c-2.98-2.49-4.47-6.5-4.47-12.04l-0.14-8.74c0-9.61,1.23-15.9,3.69-18.86c2.46-2.96,8.31-4.44,17.54-4.44L606.93,569.71z
				 M599.12,606.29l7.74,0.14l7.39-0.07c4.07,0,7-0.44,8.77-1.32c1.78-0.88,2.66-3.05,2.66-6.52l0.14-6.41
				c0-2.18-0.13-4.05-0.39-5.59c-0.26-1.54-0.79-2.68-1.6-3.42c-0.81-0.74-2-1.22-3.59-1.46c-1.59-0.24-3.28-0.36-5.08-0.36
				l-14.35,0.07c-3.27,0-5.75,0.33-7.46,1c-1.7,0.66-2.69,2.08-2.95,4.24c-0.26,2.16-0.39,3.95-0.39,5.38v1.28v1.92
				c0,4.37,0.51,7.31,1.53,8.83C592.57,605.53,595.09,606.29,599.12,606.29z"/>
			<path class="st4" d="M700.85,617.58L672.34,582v35.58h-13.57v-47.37h22.96l28.54,35.51v-35.51h13.57v47.37H700.85z"/>
			<path class="st4" d="M796.14,570.21v10.8h-38.42v8.1h35.87v9.38h-35.87v8.38h38.42v10.73H743.3v-47.37H796.14z"/>
		</g>
		<g>
			<linearGradient id="SVGID_2_" gradientUnits="userSpaceOnUse" x1="274.9085" y1="645.9511" x2="681.4995" y2="699.3286">
				<stop  offset="0" style="stop-color:#FF003B"/>
				<stop  offset="1" style="stop-color:#FFA300"/>
			</linearGradient>
			<path class="st1" d="M283.98,638.5c1.54,0,2.72,0.29,3.54,0.88c0.82,0.59,1.23,1.62,1.23,3.1c0,0.65-0.06,1.2-0.17,1.66
				c-0.12,0.46-0.32,0.81-0.63,1.08c-0.3,0.26-0.58,0.44-0.83,0.53c-0.25,0.09-0.61,0.2-1.08,0.32c1.25,0.2,2.12,0.52,2.59,0.95
				c0.48,0.43,0.72,1.26,0.72,2.48c0,1.71-0.41,2.88-1.24,3.51c-0.83,0.63-2.13,0.94-3.9,0.94h-14.89V638.5H283.98z M284.01,643.18
				c0-0.52-0.15-0.87-0.45-1.04c-0.3-0.17-0.74-0.25-1.33-0.25h-8.2v2.69h8.11c0.62,0,1.08-0.08,1.4-0.25
				C283.85,644.15,284.01,643.77,284.01,643.18z M284.63,648.95c0-0.42-0.14-0.74-0.41-0.97c-0.27-0.23-0.8-0.35-1.59-0.35h-8.62
				v2.83h8.55c0.54,0,1.02-0.06,1.44-0.17C284.42,650.16,284.63,649.72,284.63,648.95z"/>
			<linearGradient id="SVGID_3_" gradientUnits="userSpaceOnUse" x1="275.4043" y1="642.1741" x2="681.9954" y2="695.5515">
				<stop  offset="0" style="stop-color:#FF003B"/>
				<stop  offset="1" style="stop-color:#FFA300"/>
			</linearGradient>
			<path class="st2" d="M303.97,653.95h-5.18l8.61-15.45h6.35l8.43,15.45H317l-1.45-2.8h-10.06L303.97,653.95z M307.16,647.95h6.74
				l-3.34-6.49L307.16,647.95z"/>
			<linearGradient id="SVGID_4_" gradientUnits="userSpaceOnUse" x1="276.0054" y1="637.5956" x2="682.5964" y2="690.973">
				<stop  offset="0" style="stop-color:#FF003B"/>
				<stop  offset="1" style="stop-color:#FFA300"/>
			</linearGradient>
			<path class="st3" d="M351.38,648.74c0,2.13-0.39,3.55-1.17,4.25c-0.78,0.7-2.32,1.05-4.62,1.05l-3.59,0.07l-2.92-0.05
				c-3.1,0-5.1-0.41-5.99-1.22c-0.89-0.81-1.33-2.07-1.33-3.79l-0.14-3.24c0-2.53,0.37-4.39,1.11-5.57
				c0.74-1.18,2.25-1.77,4.54-1.77l4.4-0.12c1.28,0,2.34,0.01,3.17,0.03c0.83,0.02,1.84,0.1,3.03,0.22
				c1.19,0.12,2.04,0.64,2.55,1.56c0.51,0.92,0.76,2.17,0.76,3.76h-4.56c0-0.7-0.17-1.17-0.52-1.41c-0.35-0.24-0.9-0.35-1.66-0.35
				l-1.32-0.02h-1.3l-2.39,0.02c-1.42,0-2.29,0.26-2.61,0.78c-0.32,0.52-0.47,1.6-0.47,3.25c0,1.69,0.19,2.79,0.56,3.29
				c0.37,0.51,1.36,0.76,2.96,0.76l1.83,0.05l2.41-0.02c0.94,0,1.61-0.13,2.01-0.39c0.4-0.26,0.6-0.87,0.6-1.83h4.61L351.38,648.74z
				"/>
			<linearGradient id="SVGID_5_" gradientUnits="userSpaceOnUse" x1="276.5175" y1="633.6946" x2="683.1086" y2="687.072">
				<stop  offset="0" style="stop-color:#FF003B"/>
				<stop  offset="1" style="stop-color:#FFA300"/>
			</linearGradient>
			<path class="st5" d="M369.09,644.32l6.37-5.81h6.49l-8.86,7.64l9.83,7.8h-6.9l-6.93-5.88h-2.41v5.88h-4.7V638.5h4.7v5.81H369.09z
				"/>
			<linearGradient id="SVGID_6_" gradientUnits="userSpaceOnUse" x1="277.004" y1="629.9891" x2="683.595" y2="683.3665">
				<stop  offset="0" style="stop-color:#FF003B"/>
				<stop  offset="1" style="stop-color:#FFA300"/>
			</linearGradient>
			<path class="st6" d="M408.88,638.5v3.52h-11.7v2.64h11.7v3.06h-11.7v6.23h-4.7V638.5H408.88z"/>
			<linearGradient id="SVGID_7_" gradientUnits="userSpaceOnUse" x1="277.3487" y1="627.3634" x2="683.9397" y2="680.7408">
				<stop  offset="0" style="stop-color:#FF003B"/>
				<stop  offset="1" style="stop-color:#FFA300"/>
			</linearGradient>
			<path class="st7" d="M434.05,650.08v3.87h-15.38V638.5h4.7v11.58H434.05z"/>
			<linearGradient id="SVGID_8_" gradientUnits="userSpaceOnUse" x1="277.9041" y1="623.1326" x2="684.4951" y2="676.5101">
				<stop  offset="0" style="stop-color:#FF003B"/>
				<stop  offset="1" style="stop-color:#FFA300"/>
			</linearGradient>
			<path class="st8" d="M453.58,638.34l3.75,0.02c2.75,0,4.63,0.46,5.64,1.37c1.01,0.91,1.52,2.73,1.52,5.47v0.74
				c0,3.21-0.4,5.36-1.2,6.45c-0.8,1.09-2.83,1.63-6.09,1.63l-3.54,0.07l-1.48,0.02l-3.2-0.12c-1.79,0-3.17-0.4-4.15-1.22
				s-1.46-2.12-1.46-3.93l-0.05-2.85c0-3.13,0.4-5.18,1.2-6.15c0.8-0.96,2.71-1.45,5.72-1.45L453.58,638.34z M451.03,650.27
				l2.52,0.05l2.41-0.02c1.33,0,2.28-0.14,2.86-0.43c0.58-0.29,0.87-1,0.87-2.13l0.05-2.09c0-0.71-0.04-1.32-0.13-1.82
				c-0.08-0.5-0.26-0.87-0.52-1.11c-0.26-0.24-0.65-0.4-1.17-0.48c-0.52-0.08-1.07-0.12-1.66-0.12l-4.68,0.02
				c-1.07,0-1.88,0.11-2.43,0.33c-0.56,0.22-0.88,0.68-0.96,1.38c-0.08,0.7-0.13,1.29-0.13,1.75v0.42v0.63
				c0,1.42,0.17,2.38,0.5,2.88C448.89,650.02,449.72,650.27,451.03,650.27z"/>
			<linearGradient id="SVGID_9_" gradientUnits="userSpaceOnUse" x1="278.5692" y1="618.0668" x2="685.1602" y2="671.4443">
				<stop  offset="0" style="stop-color:#FF003B"/>
				<stop  offset="1" style="stop-color:#FFA300"/>
			</linearGradient>
			<path class="st9" d="M493.35,653.95l-3.44-10.95l-3.59,10.95h-6.3l-6.28-15.45h4.82l4.49,11.72l4.09-11.72h5.65l3.86,11.72
				l4.66-11.72h4.78l-6.37,15.45H493.35z"/>
			<linearGradient id="SVGID_10_" gradientUnits="userSpaceOnUse" x1="279.3222" y1="612.3308" x2="685.9132" y2="665.7083">
				<stop  offset="0" style="stop-color:#FF003B"/>
				<stop  offset="1" style="stop-color:#FFA300"/>
			</linearGradient>
			<path class="st10" d="M532.87,649.27c0,0.63,0.21,1.03,0.64,1.19c0.42,0.16,1.01,0.24,1.77,0.24l2.22,0.02l3.15-0.09
				c0.86,0,1.43-0.11,1.69-0.32c0.26-0.22,0.39-0.56,0.39-1.02c0-0.42-0.15-0.75-0.45-1c-0.3-0.25-0.88-0.37-1.73-0.37h-0.76
				l-7.73-0.16c-1.45,0-2.47-0.37-3.07-1.1c-0.59-0.73-0.89-1.86-0.89-3.37c0-1.28,0.19-2.28,0.57-2.99
				c0.38-0.71,1.07-1.19,2.06-1.45c1-0.26,2.3-0.41,3.91-0.45c1.61-0.05,2.7-0.07,3.25-0.07l3.29,0.05c1.31,0,2.37,0.1,3.17,0.31
				c0.8,0.21,1.37,0.59,1.7,1.15c0.33,0.56,0.54,1.06,0.64,1.51c0.09,0.45,0.14,1.06,0.14,1.85h-4.61c0-0.54-0.16-0.92-0.47-1.14
				c-0.32-0.22-0.76-0.32-1.33-0.32l-2.27-0.02l-3.59,0.12c-0.48,0-0.88,0.09-1.22,0.27c-0.33,0.18-0.5,0.47-0.5,0.89
				c0,0.57,0.2,0.95,0.59,1.12c0.39,0.18,0.93,0.27,1.61,0.27h0.49l3.15,0.05l3.1,0.02c1.99,0,3.44,0.31,4.34,0.94
				c0.9,0.63,1.35,1.88,1.35,3.76c0,1.82-0.41,3.07-1.22,3.75c-0.81,0.68-2.15,1.02-4.02,1.02l-6.02,0.16l-3.15-0.07
				c-1.67,0-2.89-0.27-3.68-0.81c-0.79-0.54-1.18-1.63-1.18-3.27v-0.93h4.63L532.87,649.27z"/>
			<linearGradient id="SVGID_11_" gradientUnits="userSpaceOnUse" x1="279.8177" y1="608.5565" x2="686.4087" y2="661.9339">
				<stop  offset="0" style="stop-color:#FF003B"/>
				<stop  offset="1" style="stop-color:#FFA300"/>
			</linearGradient>
			<path class="st11" d="M575.37,638.5v3.52h-12.53v2.64h11.7v3.06h-11.7v2.73h12.53v3.5h-17.23V638.5H575.37z"/>
			<linearGradient id="SVGID_12_" gradientUnits="userSpaceOnUse" x1="280.2687" y1="605.1208" x2="686.8597" y2="658.4983">
				<stop  offset="0" style="stop-color:#FF003B"/>
				<stop  offset="1" style="stop-color:#FFA300"/>
			</linearGradient>
			<path class="st12" d="M600.17,638.5c1.85,0,3.18,0.36,3.97,1.08c0.8,0.72,1.19,1.99,1.19,3.81c0,0.69-0.04,1.29-0.12,1.78
				c-0.08,0.49-0.23,0.92-0.46,1.29c-0.23,0.36-0.5,0.63-0.81,0.81c-0.31,0.18-0.96,0.43-1.95,0.75c1.08,0.14,1.88,0.41,2.39,0.82
				c0.51,0.41,0.76,1.12,0.76,2.14v2.96h-4.77v-1.48c0-0.76-0.07-1.36-0.2-1.81c-0.13-0.45-0.74-0.67-1.84-0.67h-7.85v3.96h-4.7
				V638.5H600.17z M598.2,646.24c1.06,0,1.73-0.13,1.99-0.39c0.26-0.26,0.39-0.85,0.39-1.76c0-0.51-0.05-0.89-0.15-1.13
				c-0.1-0.25-0.31-0.42-0.63-0.51c-0.32-0.09-0.58-0.15-0.78-0.16c-0.2-0.02-0.44-0.02-0.72-0.02h-0.37h-7.46v3.98h7.11H598.2z"/>
			<linearGradient id="SVGID_13_" gradientUnits="userSpaceOnUse" x1="280.8925" y1="600.369" x2="687.4835" y2="653.7465">
				<stop  offset="0" style="stop-color:#FF003B"/>
				<stop  offset="1" style="stop-color:#FFA300"/>
			</linearGradient>
			<path class="st13" d="M622.89,653.95l-8.15-15.45h5.14l6.06,11.63l6.34-11.63h5.23l-8.63,15.45H622.89z"/>
			<linearGradient id="SVGID_14_" gradientUnits="userSpaceOnUse" x1="281.2186" y1="597.8851" x2="687.8096" y2="651.2625">
				<stop  offset="0" style="stop-color:#FF003B"/>
				<stop  offset="1" style="stop-color:#FFA300"/>
			</linearGradient>
			<path class="st14" d="M647.09,653.95V638.5h4.7v15.45H647.09z"/>
			<linearGradient id="SVGID_15_" gradientUnits="userSpaceOnUse" x1="281.6112" y1="594.8948" x2="688.2022" y2="648.2723">
				<stop  offset="0" style="stop-color:#FF003B"/>
				<stop  offset="1" style="stop-color:#FFA300"/>
			</linearGradient>
			<path class="st15" d="M682.25,648.74c0,2.13-0.39,3.55-1.17,4.25c-0.78,0.7-2.32,1.05-4.62,1.05l-3.59,0.07l-2.92-0.05
				c-3.1,0-5.1-0.41-5.99-1.22c-0.89-0.81-1.33-2.07-1.33-3.79l-0.14-3.24c0-2.53,0.37-4.39,1.11-5.57
				c0.74-1.18,2.25-1.77,4.54-1.77l4.4-0.12c1.28,0,2.34,0.01,3.17,0.03c0.83,0.02,1.84,0.1,3.03,0.22
				c1.19,0.12,2.04,0.64,2.55,1.56c0.51,0.92,0.76,2.17,0.76,3.76h-4.56c0-0.7-0.17-1.17-0.52-1.41c-0.35-0.24-0.9-0.35-1.66-0.35
				l-1.32-0.02h-1.3l-2.39,0.02c-1.42,0-2.29,0.26-2.61,0.78c-0.32,0.52-0.47,1.6-0.47,3.25c0,1.69,0.19,2.79,0.56,3.29
				c0.37,0.51,1.36,0.76,2.96,0.76l1.83,0.05l2.41-0.02c0.94,0,1.61-0.13,2.01-0.39c0.4-0.26,0.6-0.87,0.6-1.83h4.61L682.25,648.74z
				"/>
			<linearGradient id="SVGID_16_" gradientUnits="userSpaceOnUse" x1="282.1001" y1="591.1708" x2="688.6911" y2="644.5482">
				<stop  offset="0" style="stop-color:#FF003B"/>
				<stop  offset="1" style="stop-color:#FFA300"/>
			</linearGradient>
			<path class="st16" d="M710.08,638.5v3.52h-12.53v2.64h11.7v3.06h-11.7v2.73h12.53v3.5h-17.23V638.5H710.08z"/>
			<linearGradient id="SVGID_17_" gradientUnits="userSpaceOnUse" x1="282.5765" y1="587.5418" x2="689.1675" y2="640.9193">
				<stop  offset="0" style="stop-color:#FF003B"/>
				<stop  offset="1" style="stop-color:#FFA300"/>
			</linearGradient>
			<path class="st17" d="M724.95,649.27c0,0.63,0.21,1.03,0.64,1.19c0.42,0.16,1.01,0.24,1.77,0.24l2.22,0.02l3.15-0.09
				c0.86,0,1.43-0.11,1.69-0.32c0.26-0.22,0.39-0.56,0.39-1.02c0-0.42-0.15-0.75-0.45-1c-0.3-0.25-0.88-0.37-1.73-0.37h-0.76
				l-7.73-0.16c-1.45,0-2.47-0.37-3.07-1.1c-0.59-0.73-0.89-1.86-0.89-3.37c0-1.28,0.19-2.28,0.57-2.99
				c0.38-0.71,1.07-1.19,2.06-1.45c1-0.26,2.3-0.41,3.91-0.45c1.61-0.05,2.7-0.07,3.25-0.07l3.29,0.05c1.31,0,2.37,0.1,3.17,0.31
				c0.8,0.21,1.37,0.59,1.7,1.15c0.33,0.56,0.54,1.06,0.64,1.51c0.09,0.45,0.14,1.06,0.14,1.85h-4.61c0-0.54-0.16-0.92-0.47-1.14
				c-0.32-0.22-0.76-0.32-1.33-0.32l-2.27-0.02l-3.59,0.12c-0.48,0-0.88,0.09-1.22,0.27c-0.33,0.18-0.5,0.47-0.5,0.89
				c0,0.57,0.2,0.95,0.59,1.12c0.39,0.18,0.93,0.27,1.61,0.27h0.49l3.15,0.05l3.1,0.02c1.99,0,3.44,0.31,4.34,0.94
				c0.9,0.63,1.35,1.88,1.35,3.76c0,1.82-0.41,3.07-1.22,3.75c-0.81,0.68-2.15,1.02-4.02,1.02l-6.02,0.16l-3.15-0.07
				c-1.67,0-2.89-0.27-3.68-0.81c-0.79-0.54-1.18-1.63-1.18-3.27v-0.93h4.63L724.95,649.27z"/>
		</g>
		<linearGradient id="SVGID_18_" gradientUnits="userSpaceOnUse" x1="233.6389" y1="588.8287" x2="233.6389" y2="610.9485">
			<stop  offset="0" style="stop-color:#050505"/>
			<stop  offset="1" style="stop-color:#050505;stop-opacity:0"/>
		</linearGradient>
		<polygon class="st18" points="235.94,592.11 206.18,592.11 206.18,615.18 215.79,615.18 215.79,597.14 226.46,597.14 
			247.71,615.18 261.1,615.18 234.07,593.72 		"/>
		<linearGradient id="SVGID_19_" gradientUnits="userSpaceOnUse" x1="309.5334" y1="588.8287" x2="309.5334" y2="610.9485">
			<stop  offset="0" style="stop-color:#050505"/>
			<stop  offset="1" style="stop-color:#050505;stop-opacity:0"/>
		</linearGradient>
		<polygon class="st19" points="295.13,596.07 330.99,596.07 330.99,592.11 285.52,592.11 285.52,615.18 333.55,615.18 
			333.55,609.26 295.13,609.26 		"/>
		<linearGradient id="SVGID_20_" gradientUnits="userSpaceOnUse" x1="383.2072" y1="588.8287" x2="383.2072" y2="610.9485">
			<stop  offset="0" style="stop-color:#050505"/>
			<stop  offset="1" style="stop-color:#050505;stop-opacity:0"/>
		</linearGradient>
		<polygon class="st20" points="384.39,592.11 383.23,593.54 382.06,592.11 371.33,592.11 378.42,600.2 378.42,615.18 388.1,615.18 
			388.1,600.21 395.08,592.11 		"/>
		<linearGradient id="SVGID_21_" gradientUnits="userSpaceOnUse" x1="460.7475" y1="588.8287" x2="460.7475" y2="610.9485">
			<stop  offset="0" style="stop-color:#050505"/>
			<stop  offset="1" style="stop-color:#050505;stop-opacity:0"/>
		</linearGradient>
		<path class="st21" d="M484.77,593.32c-0.68-0.47-1.52-0.87-2.48-1.2h-47.82c0.28,0.62,0.61,1.16,0.98,1.62
			c1.34,1.65,3.87,2.48,7.54,2.48l23.77,0.5l2.29,0c3.25,0,5.42,0.53,6.82,1.68c1.48,1.22,2.26,2.91,2.26,4.91
			c0,2.7-1.13,4.2-2.08,4.98c-1.3,1.07-3.37,1.54-6.71,1.54l-9.59,0.28l-6.91-0.07c-2.62,0-4.67-0.3-6.27-0.9
			c-1.11-0.42-2.86-1.52-3.36-4.28h-9.61v0.44c0,4.16,0.87,6.86,2.58,8.03c1.99,1.37,5.34,2.06,9.93,2.06l9.65,0.21l18.41-0.5
			c5.19,0,8.82-0.86,10.84-2.56c1.9-1.6,2.87-4.85,2.87-9.66C487.89,597.97,486.84,594.75,484.77,593.32z"/>
		<linearGradient id="SVGID_22_" gradientUnits="userSpaceOnUse" x1="532.8021" y1="588.8287" x2="532.8021" y2="610.9485">
			<stop  offset="0" style="stop-color:#050505"/>
			<stop  offset="1" style="stop-color:#050505;stop-opacity:0"/>
		</linearGradient>
		<rect x="528" y="592.11" class="st22" width="9.61" height="23.07"/>
		<linearGradient id="SVGID_23_" gradientUnits="userSpaceOnUse" x1="607.8411" y1="588.8287" x2="607.8411" y2="610.9485">
			<stop  offset="0" style="stop-color:#050505"/>
			<stop  offset="1" style="stop-color:#050505;stop-opacity:0"/>
		</linearGradient>
		<path class="st23" d="M628.14,592.11C628.14,592.11,628.14,592.11,628.14,592.11l-0.14,6.47c0,4.39-1.35,7.3-4,8.62
			c-2.13,1.05-5.35,1.57-9.84,1.57l-7.36,0.07l-7.79-0.14c-4.91,0-8.03-1.1-9.54-3.35c-1.32-1.97-1.93-5.2-1.93-10.17v-3.07h-9.74
			c0,0.37-0.01,0.73-0.01,1.11l0.14,8.7c0,4.81,1.22,8.24,3.61,10.23c2.53,2.1,6.29,3.17,11.17,3.17l9.83,0.35l15.34-0.28
			c11.43,0,15.44-2.19,16.79-4.03c1.47-1.99,3.22-6.8,3.22-18.35v-0.9H628.14z"/>
		<linearGradient id="SVGID_24_" gradientUnits="userSpaceOnUse" x1="665.4781" y1="588.8287" x2="665.4781" y2="610.9485">
			<stop  offset="0" style="stop-color:#050505"/>
			<stop  offset="1" style="stop-color:#050505;stop-opacity:0"/>
		</linearGradient>
		<rect x="661.1" y="592.11" class="st24" width="8.76" height="23.07"/>
		<linearGradient id="SVGID_25_" gradientUnits="userSpaceOnUse" x1="702.3965" y1="588.8287" x2="702.3965" y2="610.9485">
			<stop  offset="0" style="stop-color:#050505"/>
			<stop  offset="1" style="stop-color:#050505;stop-opacity:0"/>
		</linearGradient>
		<polygon class="st25" points="712.59,592.11 712.59,612.55 696.17,592.11 683.44,592.11 701.92,615.18 721.35,615.18 
			721.35,592.11 		"/>
		<linearGradient id="SVGID_26_" gradientUnits="userSpaceOnUse" x1="769.6368" y1="588.8287" x2="769.6368" y2="610.9485">
			<stop  offset="0" style="stop-color:#050505"/>
			<stop  offset="1" style="stop-color:#050505;stop-opacity:0"/>
		</linearGradient>
		<polygon class="st26" points="755.23,596.07 791.1,596.07 791.1,592.11 745.62,592.11 745.62,615.18 793.66,615.18 793.66,609.26 
			755.23,609.26 		"/>
	</g>
	<g>
		<g>
			<path class="st4" d="M523.32,438.48l2.38,17.83c1.31,0.2,2.62,0.42,3.91,0.68l-0.85,4.02l1.22,0.26l0.85-4.01
				c2.19,0.48,4.35,1.04,6.47,1.7l-1.28,3.93l1.19,0.38l1.27-3.92c2.13,0.7,4.22,1.49,6.26,2.37l-1.69,3.79l1.14,0.51l1.68-3.79
				c2.04,0.92,4.04,1.92,5.98,3.01l-6.3,10.91l1.08,0.62l6.3-10.91c2.15,1.25,4.23,2.6,6.24,4.04l-2.52,3.39l1,0.74l2.53-3.41
				c1.8,1.34,3.52,2.76,5.19,4.24l-2.9,3.16l0.92,0.84l2.91-3.17c1.65,1.51,3.23,3.1,4.75,4.75l-3.28,2.89l0.82,0.93l3.28-2.9
				c1.49,1.67,2.91,3.41,4.25,5.21l-3.64,2.59l0.72,1.02l3.64-2.59c1.17,1.62,2.28,3.27,3.32,4.98l-11.25,6.5l0.62,1.08l11.25-6.5
				c1.13,1.94,2.19,3.92,3.16,5.96l-4.28,1.9l0.51,1.14l4.28-1.9c0.93,2.04,1.77,4.13,2.52,6.27l-4.56,1.48l0.38,1.19l4.57-1.48
				c0.71,2.13,1.32,4.3,1.85,6.51l-4.8,1.02l0.26,1.22l4.82-1.02c0.48,2.19,0.86,4.42,1.15,6.68l-5,0.53l0.13,1.24l5.02-0.53
				c0.31,2.82,0.49,5.68,0.49,8.58h17.42C608.74,483.42,571.17,443.01,523.32,438.48z"/>
			<linearGradient id="SVGID_27_" gradientUnits="userSpaceOnUse" x1="473.5952" y1="525.9962" x2="622.2626" y2="397.7706">
				<stop  offset="0" style="stop-color:#FF003B"/>
				<stop  offset="1" style="stop-color:#FFA300"/>
			</linearGradient>
			<path class="st27" d="M501.05,532.74h26.33l-3.73-11.94c2.95-2.6,4.82-6.4,4.82-10.64c0-5.08-2.68-9.53-6.7-12.04l-7.04-60.73
				l-7.83,60.66c-4.08,2.49-6.82,6.98-6.82,12.11c0,4.12,1.77,7.82,4.57,10.41L501.05,532.74z M509.42,506.58
				c0.01-0.01,0.02-0.02,0.02-0.03c1.1-1.47,2.85-2.42,4.83-2.42s3.72,0.95,4.83,2.42c0.01,0.01,0.02,0.02,0.02,0.03
				c0.75,1.01,1.2,2.25,1.2,3.6c0,0.57-0.09,1.12-0.23,1.64c0,0.01,0,0.02-0.01,0.03c-0.73,2.53-3.05,4.38-5.81,4.38
				c-2.76,0-5.08-1.85-5.81-4.38c0-0.01,0-0.02-0.01-0.03c-0.15-0.52-0.23-1.07-0.23-1.64
				C508.22,508.84,508.67,507.59,509.42,506.58z"/>
			<path class="st4" d="M468.68,449.86c-5.11,2.84-9.94,6.14-14.41,9.84c-20.94,17.33-34.3,43.5-34.3,72.73h17.42
				c0-3.27,0.23-6.48,0.64-9.63l-0.11,1.03l5.2,0.55l0.13-1.24l-5.19-0.55c0.29-2.26,0.66-4.5,1.15-6.7l5.03,1.07l0.26-1.22l-5-1.06
				c0.53-2.22,1.15-4.39,1.86-6.53l4.77,1.55l0.38-1.19l-4.75-1.54c0.75-2.14,1.6-4.23,2.53-6.28l4.46,1.98l0.51-1.14l-4.45-1.98
				c0.97-2.04,2.03-4.03,3.17-5.97l11.41,6.59l0.62-1.08l-11.41-6.59c1.3-2.14,2.71-4.21,4.21-6.2l3.73,2.77l0.74-1l-3.7-2.75
				c1.38-1.78,2.83-3.49,4.35-5.14l3.33,3.06l0.84-0.92l-3.31-3.04c1.55-1.62,3.17-3.17,4.85-4.65l2.93,3.32l0.93-0.83l-2.92-3.31
				c1.7-1.45,3.47-2.82,5.3-4.12l2.52,3.54l1.01-0.72l-2.52-3.54c1.64-1.13,3.33-2.18,5.05-3.18l6.35,11l1.08-0.62l-6.35-11
				c1.95-1.09,3.95-2.08,6-3l1.72,3.87l1.14-0.51l-1.72-3.87c2.05-0.88,4.14-1.65,6.27-2.35l1.29,3.98l1.19-0.38l-1.3-3.99
				c2.12-0.66,4.28-1.21,6.48-1.69l0.86,4.06l1.22-0.26l-0.86-4.06c1.26-0.25,2.52-0.46,3.8-0.65l3.42-17.92
				C492.89,439.51,480.07,443.54,468.68,449.86z"/>
		</g>
		<g>
			<linearGradient id="SVGID_28_" gradientUnits="userSpaceOnUse" x1="382.7262" y1="388.3199" x2="583.3579" y2="388.3199">
				<stop  offset="0" style="stop-color:#FF003B"/>
				<stop  offset="1" style="stop-color:#FFA300"/>
			</linearGradient>
			<path class="st28" d="M614.59,358.12l-8.82,11.25c-27.62-15.32-58.83-23.48-91.25-23.48c-0.05,0-0.11,0-0.16,0
				c-0.05,0-0.11,0-0.16,0c-32.42,0-63.63,8.16-91.25,23.48l-8.82-11.25l-15.8,12.4l47.25,60.23l15.8-12.4l-5.29-6.74
				c17.94-8.51,37.69-13,58.11-13c0.05,0,0.11,0,0.16,0c0.05,0,0.11,0,0.16,0c20.42,0,40.17,4.49,58.11,13l-5.29,6.74l15.8,12.4
				l47.25-60.23L614.59,358.12z"/>
			<linearGradient id="SVGID_29_" gradientUnits="userSpaceOnUse" x1="513.5599" y1="374.6993" x2="515.3435" y2="425.355">
				<stop  offset="0" style="stop-color:#050505"/>
				<stop  offset="1" style="stop-color:#050505;stop-opacity:0"/>
			</linearGradient>
			<path style="opacity:0.6;fill:url(#SVGID_29_);" d="M515.46,372.65c-0.37,0-0.73,0.02-1.1,0.02c-0.37,0-0.73-0.02-1.1-0.02
				c-31.54,0-60.97,9.01-85.9,24.55l19.23,24.52l4.69-3.68l-6.38-8.14l7.99-3.79c19.15-9.08,39.72-13.68,61.14-13.68
				c0.11,0,0.23,0,0.34,0c0.11,0,0.23,0,0.34,0c21.42,0,41.99,4.6,61.14,13.68l7.99,3.79l-6.38,8.14l4.69,3.68l19.23-24.52
				C576.42,381.66,547,372.65,515.46,372.65z"/>
		</g>
		<g>
			<path class="st4" d="M697.29,513.28c-4.57-41.16-22.44-79.37-51.42-109.5l9.88-12.59l-12.68-9.95l-3.12-2.45l-8.8,11.22
				l-32.57,41.52l-5.88,7.49l3.26,2.56l12.54,9.84l4.38-5.58c16.62,19.25,27.35,42.49,31.23,67.44h-10.47v20.09h76.55v-20.09H697.29
				z"/>
			<linearGradient id="SVGID_30_" gradientUnits="userSpaceOnUse" x1="662.6595" y1="460.9189" x2="610.3824" y2="495.4146">
				<stop  offset="0" style="stop-color:#050505"/>
				<stop  offset="1" style="stop-color:#050505;stop-opacity:0"/>
			</linearGradient>
			<path style="opacity:0.6;fill:url(#SVGID_30_);" d="M620.49,416.13l-17.71,22.58l4.69,3.68l5.31-6.77l5.61,6.49
				c17.41,20.18,28.78,44.72,32.86,70.97l1.27,8.15h-11.65v5.97h31.4C670.13,483.36,650.61,444.12,620.49,416.13z"/>
			<path class="st4" d="M331.42,513.28c4.57-41.16,22.44-79.37,51.42-109.5l-9.88-12.59l12.68-9.95l3.12-2.45l8.8,11.22l32.57,41.52
				l5.88,7.49l-3.26,2.56l-12.54,9.84l-4.38-5.58c-16.62,19.25-27.35,42.49-31.23,67.44h10.47v20.09h-76.55v-20.09H331.42z"/>
			
				<linearGradient id="SVGID_31_" gradientUnits="userSpaceOnUse" x1="164.5627" y1="460.9189" x2="112.2855" y2="495.4146" gradientTransform="matrix(-1 0 0 1 530.6077 0)">
				<stop  offset="0" style="stop-color:#050505"/>
				<stop  offset="1" style="stop-color:#050505;stop-opacity:0"/>
			</linearGradient>
			<path style="opacity:0.6;fill:url(#SVGID_31_);" d="M408.21,416.13l17.71,22.58l-4.69,3.68l-5.31-6.77l-5.61,6.49
				c-17.41,20.18-28.78,44.72-32.86,70.97l-1.27,8.15h11.65v5.97h-31.4C358.58,483.36,378.09,444.12,408.21,416.13z"/>
		</g>
	</g>
</g>
</svg>
